# MagicaVoxel @ Ephtracy

# group
o 

# material
mtllib untitled-1.mtl
usemtl palette

# normals
vn -1 0 0
vn 1 0 0
vn 0 0 1
vn 0 0 -1
vn 0 -1 0
vn 0 1 0

# texcoords
vt 0.970703 0.5
vt 0.974609 0.5
vt 0.990234 0.5

# verts
v -9.1 0 -0.6
v -9.1 0 -4.2
v -9.1 0 -4.4
v -9.1 0.1 -4.2
v -9.1 0.1 -4.3
v -9.1 0.2 -4.3
v -9.1 0.2 -4.4
v -9.1 3.8 -4.3
v -9.1 3.8 -4.4
v -9.1 3.9 -4.2
v -9.1 3.9 -4.3
v -9.1 4 -0.6
v -9.1 4 -4.2
v -9.1 4 -4.4
v -5.5 0 -0.6
v -5.5 0 -4.2
v -5.5 0 -4.4
v -5.5 0.1 -4.2
v -5.5 0.1 -4.3
v -5.5 0.2 -4.3
v -5.5 0.2 -4.4
v -5.5 3.8 -4.3
v -5.5 3.8 -4.4
v -5.5 3.9 -4.2
v -5.5 3.9 -4.3
v -5.5 4 -0.6
v -5.5 4 -4.2
v -5.5 4 -4.4
v -9.1 0 -0.6
v -9.1 4 -0.6
v -5.5 0 -0.6
v -5.5 4 -0.6
v -9.1 0 -4.4
v -9.1 0.2 -4.4
v -9.1 3.8 -4.4
v -9.1 4 -4.4
v -5.5 0 -4.4
v -5.5 0.2 -4.4
v -5.5 3.8 -4.4
v -5.5 4 -4.4
v -9.1 0 -0.6
v -5.5 0 -0.6
v -9.1 0 -4.2
v -5.5 0 -4.2
v -9.1 0 -4.4
v -5.5 0 -4.4
v -9.1 4 -0.6
v -5.5 4 -0.6
v -9.1 4 -4.2
v -5.5 4 -4.2
v -9.1 4 -4.4
v -5.5 4 -4.4

# faces
f 4/2/1 2/2/1 1/2/1
f 4/1/1 3/1/1 2/1/1
f 5/1/1 3/1/1 4/1/1
f 6/2/1 5/2/1 4/2/1
f 6/1/1 3/1/1 5/1/1
f 7/1/1 3/1/1 6/1/1
f 8/2/1 6/2/1 4/2/1
f 8/2/1 7/2/1 6/2/1
f 9/2/1 7/2/1 8/2/1
f 10/2/1 4/2/1 1/2/1
f 10/2/1 8/2/1 4/2/1
f 11/1/1 9/1/1 8/1/1
f 11/2/1 8/2/1 10/2/1
f 12/2/1 10/2/1 1/2/1
f 13/1/1 11/1/1 10/1/1
f 13/2/1 10/2/1 12/2/1
f 14/1/1 9/1/1 11/1/1
f 14/1/1 11/1/1 13/1/1
f 15/2/2 16/2/2 18/2/2
f 16/1/2 17/1/2 18/1/2
f 18/1/2 17/1/2 19/1/2
f 18/2/2 19/2/2 20/2/2
f 19/1/2 17/1/2 20/1/2
f 20/1/2 17/1/2 21/1/2
f 18/2/2 20/2/2 22/2/2
f 20/2/2 21/2/2 22/2/2
f 22/2/2 21/2/2 23/2/2
f 15/2/2 18/2/2 24/2/2
f 18/2/2 22/2/2 24/2/2
f 22/1/2 23/1/2 25/1/2
f 24/2/2 22/2/2 25/2/2
f 15/2/2 24/2/2 26/2/2
f 24/1/2 25/1/2 27/1/2
f 26/2/2 24/2/2 27/2/2
f 25/1/2 23/1/2 28/1/2
f 27/1/2 25/1/2 28/1/2
f 31/2/3 30/2/3 29/2/3
f 32/2/3 30/2/3 31/2/3
f 33/1/4 34/1/4 37/1/4
f 34/2/4 35/2/4 38/2/4
f 37/1/4 34/1/4 38/1/4
f 35/1/4 36/1/4 39/1/4
f 38/2/4 35/2/4 39/2/4
f 39/1/4 36/1/4 40/1/4
f 43/2/5 42/2/5 41/2/5
f 44/2/5 42/2/5 43/2/5
f 45/1/5 44/1/5 43/1/5
f 46/1/5 44/1/5 45/1/5
f 47/2/6 48/2/6 49/2/6
f 49/2/6 48/2/6 50/2/6
f 49/1/6 50/1/6 51/1/6
f 51/1/6 50/1/6 52/1/6
