# MagicaVoxel @ Ephtracy

# group
o 

# material
mtllib block-1.mtl
usemtl palette

# normals
vn -1 0 0
vn 1 0 0
vn 0 0 1
vn 0 0 -1
vn 0 -1 0
vn 0 1 0

# texcoords
vt 0.970703 0.5
vt 0.974609 0.5
vt 0.990234 0.5

# verts
v -4.4 0 -0.6
v -4.4 0 -4.4
v -4.4 0.2 -0.6
v -4.4 0.2 -4.2
v -4.4 3.8 -0.6
v -4.4 3.8 -4.2
v -4.4 4 -0.6
v -4.4 4 -4.4
v -0.6 0 -0.6
v -0.6 0 -4.2
v -0.6 0 -4.4
v -0.6 0.1 -4.2
v -0.6 0.1 -4.3
v -0.6 0.2 -4.3
v -0.6 0.2 -4.4
v -0.6 3.8 -4.3
v -0.6 3.8 -4.4
v -0.6 3.9 -4.2
v -0.6 3.9 -4.3
v -0.6 4 -0.6
v -0.6 4 -4.2
v -0.6 4 -4.4
v -4.4 0 -0.6
v -4.4 0.2 -0.6
v -4.4 3.8 -0.6
v -4.4 4 -0.6
v -4.3 0.1 -0.6
v -4.3 0.2 -0.6
v -4.3 3.8 -0.6
v -4.3 3.9 -0.6
v -4.2 0 -0.6
v -4.2 0.1 -0.6
v -4.2 3.9 -0.6
v -4.2 4 -0.6
v -0.6 0 -0.6
v -0.6 4 -0.6
v -4.4 0 -4.4
v -4.4 4 -4.4
v -4.2 0.2 -4.4
v -4.2 3.8 -4.4
v -0.6 0 -4.4
v -0.6 0.2 -4.4
v -0.6 3.8 -4.4
v -0.6 4 -4.4
v -4.4 0 -0.6
v -4.2 0 -0.6
v -0.6 0 -0.6
v -4.2 0 -4.2
v -0.6 0 -4.2
v -4.4 0 -4.4
v -0.6 0 -4.4
v -4.4 4 -0.6
v -4.2 4 -0.6
v -0.6 4 -0.6
v -4.2 4 -4.2
v -0.6 4 -4.2
v -4.4 4 -4.4
v -0.6 4 -4.4

# faces
f 3/1/1 2/1/1 1/1/1
f 4/1/1 2/1/1 3/1/1
f 5/2/1 4/2/1 3/2/1
f 6/1/1 2/1/1 4/1/1
f 6/2/1 4/2/1 5/2/1
f 7/1/1 6/1/1 5/1/1
f 8/1/1 2/1/1 6/1/1
f 8/1/1 6/1/1 7/1/1
f 9/2/2 10/2/2 12/2/2
f 10/1/2 11/1/2 12/1/2
f 12/1/2 11/1/2 13/1/2
f 12/2/2 13/2/2 14/2/2
f 13/1/2 11/1/2 14/1/2
f 14/1/2 11/1/2 15/1/2
f 12/2/2 14/2/2 16/2/2
f 14/2/2 15/2/2 16/2/2
f 16/2/2 15/2/2 17/2/2
f 9/2/2 12/2/2 18/2/2
f 12/2/2 16/2/2 18/2/2
f 16/1/2 17/1/2 19/1/2
f 18/2/2 16/2/2 19/2/2
f 9/2/2 18/2/2 20/2/2
f 18/1/2 19/1/2 21/1/2
f 20/2/2 18/2/2 21/2/2
f 19/1/2 17/1/2 22/1/2
f 21/1/2 19/1/2 22/1/2
f 27/1/3 24/1/3 23/1/3
f 28/2/3 25/2/3 24/2/3
f 28/1/3 24/1/3 27/1/3
f 29/1/3 26/1/3 25/1/3
f 29/2/3 25/2/3 28/2/3
f 30/1/3 26/1/3 29/1/3
f 31/1/3 27/1/3 23/1/3
f 32/2/3 28/2/3 27/2/3
f 32/1/3 27/1/3 31/1/3
f 32/2/3 29/2/3 28/2/3
f 32/2/3 30/2/3 29/2/3
f 33/1/3 26/1/3 30/1/3
f 33/2/3 30/2/3 32/2/3
f 34/1/3 26/1/3 33/1/3
f 35/2/3 32/2/3 31/2/3
f 35/2/3 33/2/3 32/2/3
f 35/2/3 34/2/3 33/2/3
f 36/2/3 34/2/3 35/2/3
f 37/1/4 38/1/4 39/1/4
f 39/1/4 38/1/4 40/1/4
f 37/1/4 39/1/4 41/1/4
f 39/2/4 40/2/4 42/2/4
f 41/1/4 39/1/4 42/1/4
f 40/1/4 38/1/4 43/1/4
f 42/2/4 40/2/4 43/2/4
f 43/1/4 38/1/4 44/1/4
f 48/1/5 46/1/5 45/1/5
f 48/2/5 47/2/5 46/2/5
f 49/2/5 47/2/5 48/2/5
f 50/1/5 48/1/5 45/1/5
f 50/1/5 49/1/5 48/1/5
f 51/1/5 49/1/5 50/1/5
f 52/1/6 53/1/6 55/1/6
f 53/2/6 54/2/6 55/2/6
f 55/2/6 54/2/6 56/2/6
f 52/1/6 55/1/6 57/1/6
f 55/1/6 56/1/6 57/1/6
f 57/1/6 56/1/6 58/1/6
