# MagicaVoxel @ Ephtracy

# group
o 

# material
mtllib untitled-0.mtl
usemtl palette

# normals
vn -1 0 0
vn 1 0 0
vn 0 0 1
vn 0 0 -1
vn 0 -1 0
vn 0 1 0

# texcoords
vt 0.970703 0.5
vt 0.974609 0.5

# verts
v -4.3 3.8 6.5
v -4.3 3.8 2.5
v -4.3 4 6.5
v -4.3 4 2.5
v -0.5 3.8 6.5
v -0.5 3.8 6.3
v -0.5 3.8 2.7
v -0.5 3.8 2.5
v -0.5 4 6.5
v -0.5 4 6.3
v -0.5 4 2.7
v -0.5 4 2.5
v -4.3 3.8 6.5
v -4.3 4 6.5
v -0.5 3.8 6.5
v -0.5 4 6.5
v -4.3 3.8 2.5
v -4.3 4 2.5
v -0.5 3.8 2.5
v -0.5 4 2.5
v -4.3 3.8 6.5
v -0.5 3.8 6.5
v -4.1 3.8 6.3
v -0.5 3.8 6.3
v -4.1 3.8 2.7
v -0.5 3.8 2.7
v -4.3 3.8 2.5
v -0.5 3.8 2.5
v -4.3 4 6.5
v -0.5 4 6.5
v -4.1 4 6.3
v -0.5 4 6.3
v -4.1 4 2.7
v -0.5 4 2.7
v -4.3 4 2.5
v -0.5 4 2.5

# faces
f 3/1/1 2/1/1 1/1/1
f 4/1/1 2/1/1 3/1/1
f 5/1/2 6/1/2 9/1/2
f 6/2/2 7/2/2 10/2/2
f 9/1/2 6/1/2 10/1/2
f 7/1/2 8/1/2 11/1/2
f 10/2/2 7/2/2 11/2/2
f 11/1/2 8/1/2 12/1/2
f 15/1/3 14/1/3 13/1/3
f 16/1/3 14/1/3 15/1/3
f 17/1/4 18/1/4 19/1/4
f 19/1/4 18/1/4 20/1/4
f 23/1/5 22/1/5 21/1/5
f 24/1/5 22/1/5 23/1/5
f 25/1/5 23/1/5 21/1/5
f 25/2/5 24/2/5 23/2/5
f 26/2/5 24/2/5 25/2/5
f 27/1/5 25/1/5 21/1/5
f 27/1/5 26/1/5 25/1/5
f 28/1/5 26/1/5 27/1/5
f 29/1/6 30/1/6 31/1/6
f 31/1/6 30/1/6 32/1/6
f 29/1/6 31/1/6 33/1/6
f 31/2/6 32/2/6 33/2/6
f 33/2/6 32/2/6 34/2/6
f 29/1/6 33/1/6 35/1/6
f 33/1/6 34/1/6 35/1/6
f 35/1/6 34/1/6 36/1/6
