# Blender 3.3.1
# www.blender.org
mtllib character.mtl
g Storm.002_Storm.002
v -57.505604 5.699921 98.347290
v -57.606403 19.392769 98.917892
v -57.505604 5.699920 96.185555
v -57.606403 19.392769 95.220116
v -55.460110 5.699921 98.347290
v -54.732483 19.392769 98.917892
v -55.460110 5.699920 96.185555
v -54.732483 19.392769 95.220116
v -58.159935 18.013412 98.860413
v -58.159935 18.013412 95.317368
v -54.805782 18.013412 95.317368
v -54.805782 18.013412 98.860413
vn -0.0000 -0.0282 0.9996
vn -0.0000 -0.0837 0.9965
vn -0.0176 -0.0799 0.9966
vn 0.0421 -0.0440 0.9981
vn 0.0055 -0.0580 -0.9983
vn -0.0175 -0.1085 -0.9939
vn -0.0000 -0.1123 -0.9937
vn -0.0421 -0.0724 -0.9965
vn 0.9991 -0.0429 -0.0000
vn 0.9964 -0.0849 -0.0000
vn 0.9964 -0.0849 0.0009
vn 0.9980 -0.0552 -0.0318
vn -0.0000 -1.0000 -0.0000
vn -0.0000 1.0000 -0.0000
vn -0.9242 0.3818 -0.0003
vn -0.9395 0.3426 0.0010
vn -0.9395 0.3426 -0.0001
vn -0.9284 0.3702 0.0318
vn -0.9991 -0.0429 -0.0003
vn -0.9985 -0.0537 -0.0101
vn -0.9964 -0.0849 -0.0000
vn -0.9991 -0.0429 -0.0000
vn 0.9985 -0.0537 0.0101
vn 0.9991 -0.0429 -0.0003
vn -0.0000 -0.0568 -0.9984
vn 0.0135 -0.0710 -0.9974
vn -0.0000 -0.0569 -0.9984
vn -0.0135 -0.0423 0.9990
vt 0.125000 0.750000
vt 0.375000 0.000000
vt 0.375000 1.000000
vt 0.625000 1.000000
vt 0.875000 0.750000
vt 0.625000 0.000000
vt 0.125000 0.500000
vt 0.375000 0.250000
vt 0.875000 0.500000
vt 0.625000 0.250000
vt 0.375000 0.750000
vt 0.625000 0.750000
vt 0.375000 0.500000
vt 0.625000 0.500000
vt 0.599816 0.000000
vt 0.599816 1.000000
vt 0.599816 0.250000
vt 0.599816 0.500000
vt 0.599816 0.750000
s 0
usemtl Material02.001
f 12/19/1 6/12/2 2/4/3 9/16/4
f 10/17/5 4/10/6 8/14/7 11/18/8
f 11/18/9 8/14/10 6/12/11 12/19/12
f 3/7/13 7/13/13 5/11/13 1/1/13
f 8/14/14 4/9/14 2/5/14 6/12/14
f 9/15/15 2/6/16 4/10/17 10/17/18
f 1/2/19 9/15/20 10/17/21 3/8/22
f 7/13/9 11/18/23 12/19/11 5/11/24
f 3/8/25 10/17/26 11/18/7 7/13/27
f 5/11/1 12/19/28 9/16/2 1/3/1
g Куб.001_Куб.001
v -56.880455 15.450594 105.236717
v -56.880455 27.986610 105.735519
v -56.880455 14.820639 94.123550
v -56.880455 26.143364 86.239662
v -46.996483 15.450594 105.236717
v -46.996483 27.986610 105.735519
v -46.996483 14.820639 94.123550
v -46.996483 26.143364 86.239662
v -56.880455 17.535927 101.136658
v -46.996483 17.535927 101.136658
vn 1.0000 -0.0000 -0.0000
vn -0.0000 -0.5714 -0.8207
vn -0.0000 -0.0398 0.9992
vn -0.0000 -0.8913 -0.4533
vn -1.0000 -0.0000 -0.0000
vn -0.0000 -0.9325 0.3611
vn -0.0000 0.9956 -0.0941
vt 0.375000 1.000000
vt 0.125000 0.750000
vt 0.375000 0.000000
vt 0.625000 1.000000
vt 0.625000 0.000000
vt 0.875000 0.750000
vt 0.375000 0.250000
vt 0.125000 0.500000
vt 0.625000 0.250000
vt 0.875000 0.500000
vt 0.375000 0.750000
vt 0.625000 0.750000
vt 0.375000 0.500000
vt 0.625000 0.500000
vt 0.375000 0.125000
vt 0.125000 0.625000
vt 0.375000 0.625000
s 0
f 19/32/29 20/33/29 18/31/29 17/30/29 22/36/29
f 15/26/30 16/28/30 20/33/30 19/32/30
f 17/30/31 18/31/31 14/23/31 13/20/31
f 21/35/32 22/36/32 17/30/32 13/21/32
f 13/22/33 14/24/33 16/28/33 15/26/33 21/34/33
f 15/27/34 19/32/34 22/36/34 21/35/34
f 20/33/35 16/29/35 14/25/35 18/31/35
